<?xml version="1.0" encoding="utf-8"?>

<!DOCTYPE svg PUBLIC "-//W3C//DTD SVG 1.1//EN" "http://www.w3.org/Graphics/SVG/1.1/DTD/svg11.dtd">

<svg version="1.1" xmlns="http://www.w3.org/2000/svg" xmlns:xlink="http://www.w3.org/1999/xlink" width="630" height="90" viewBox="0 0 630 90">
<defs>
<g id="icon-pictures">
	<path class="path1" d="M1 7h12v8h-12v-8z"></path>
	<path class="path2" d="M2 5h13v1h-13v-1z"></path>
	<path class="path3" d="M14 5h1v8h-1v-8z"></path>
	<path class="path4" d="M4 3h13v1h-13v-1z"></path>
	<path class="path5" d="M16 3h1v8h-1v-8z"></path>
</g>
<g id="icon-play">
	<path class="path1" d="M5 3l10 6.001-10 5.999z"></path>
</g>
<g id="icon-list">
	<path class="path1" d="M1 1h16v1h-16v-1z"></path>
	<path class="path2" d="M1 16h16v1h-16v-1z"></path>
	<path class="path3" d="M2 1v16h-1v-16h1z"></path>
	<path class="path4" d="M17 1v16h-1v-16h1z"></path>
	<path class="path5" d="M5 6h8v1h-8v-1z"></path>
	<path class="path6" d="M5 9h8v1h-8v-1z"></path>
	<path class="path7" d="M5 12h8v1h-8v-1z"></path>
</g>
<g id="icon-hamburger">
	<path class="path1" d="M0 13h18v2h-18v-2z"></path>
	<path class="path2" d="M0 8h18v2h-18v-2z"></path>
	<path class="path3" d="M0 3h18v2h-18v-2z"></path>
</g>

</defs>

</svg>
